<svg width="431" height="548" viewBox="0 0 431 548" fill="none" xmlns="http://www.w3.org/2000/svg">
<path d="M402.509 236.633C402.509 194.909 388.569 154.381 362.892 121.491C337.22 88.5985 301.289 65.2344 260.811 55.1031C253.804 21.5703 236.489 0 215.309 0C194.136 0 176.656 21.1735 169.808 55.1031H169.814C107.545 70.6731 57.6186 117.097 37.5624 178.064C31.2697 196.948 28.0836 216.73 28.1141 236.633C28.1141 293.628 19.5325 348.022 4.5 386.2C-1.38375 401.093 -0.773456 417.767 6.17842 432.197C13.1303 446.62 25.7894 457.491 41.1035 462.166C68.466 470.283 96.4191 476.259 124.71 480.038C132.51 506.209 151.253 527.725 176.113 539.034C200.966 550.344 229.5 550.344 254.36 539.034C279.213 527.725 297.963 506.209 305.763 480.038C334.077 476.308 362.055 470.357 389.442 462.245C404.756 457.57 417.421 446.7 424.372 432.277C431.324 417.848 431.928 401.174 426.044 386.28C411.17 348.024 402.51 293.628 402.51 236.634L402.509 236.633ZM215.322 24.0078C221.7 24.0078 229.964 33.7673 235.238 50.4609H230.123L230.117 50.4548C219.796 49.5881 209.426 49.5881 199.104 50.4548H195.405C200.52 33.7673 208.865 24.0078 215.322 24.0078ZM215.322 523.414C201.894 523.42 188.747 519.612 177.4 512.434C166.053 505.256 156.984 495.003 151.241 482.868H153.92C163.13 483.735 172.42 484.364 181.709 484.834H185.805C195.643 485.304 205.562 485.542 215.4 485.542C225.237 485.542 235.078 485.542 244.923 484.834H248.781C258.15 484.364 267.439 483.729 276.649 482.868H279.402H279.396C273.61 494.972 264.528 505.189 253.193 512.361C241.859 519.532 228.731 523.365 215.322 523.414ZM59 452C63.5 462.166 391.682 436.409 382.764 439.02C354.028 447.657 335.547 395.881 305.763 399.5L260.811 409.5C214.083 414.535 178.716 395.035 131.988 390L26.3986 386.2C-3.34363 382.52 87.7172 460.575 59 452C63.1106 422.48 98.9922 471.466 95 463C147.99 489.107 23.005 403.363 26.3986 394.624C42.1454 354.005 374.488 501.256 374.488 441.434C374.463 424.045 377.265 270.003 382.764 253.5C391.742 226.102 84.9924 133.539 106.538 114.373C128.077 95.2078 203.66 201.446 207.988 200.5C212.315 199.554 308.507 74.3225 195.802 74.3225V74.3164C213.245 72.1619 190.763 196.984 207.988 200.5C244.889 208.093 224.971 163.802 248.781 193C272.584 222.2 99.9829 76.6969 99.9876 114.373C99.9876 174.2 325.362 345.666 341.5 386.2C344.948 395.001 33.5 431 59 452Z" fill="white"/>
</svg>
